<svg fill="#fff" height="512pt" viewBox="0 0 512 512" width="512pt" xmlns="http://www.w3.org/2000/svg"><path d="m177.035156 391.523438h-77.15625c-55.074218 0-99.878906 44.804687-99.878906 99.875 0 11.035156 8.941406 19.976562 19.976562 19.976562h236.960938c11.03125 0 19.972656-8.941406 19.972656-19.976562 0-55.070313-44.800781-99.875-99.875-99.875zm-133.660156 79.902343c8.242188-23.253906 30.460938-39.953125 56.503906-39.953125h77.15625c26.042969 0 48.257813 16.699219 56.503906 39.953125zm0 0"/><path d="m315.238281 0c-108.492187 0-196.757812 88.265625-196.757812 196.761719 0 6.660156.347656 13.3125 1.011719 19.921875-34.957032 8.519531-60.992188 40.078125-60.992188 77.625 0 44.058594 35.84375 79.902344 79.902344 79.902344 21.558594 0 41.136718-8.597657 55.523437-22.527344 34.117188 26.8125 76.3125 41.835937 121.3125 41.835937 108.496094 0 196.761719-88.265625 196.761719-196.757812 0-108.496094-88.265625-196.761719-196.761719-196.761719zm-176.835937 334.257812c-22.03125 0-39.953125-17.921874-39.953125-39.949218 0-22.03125 17.921875-39.953125 39.953125-39.953125.671875 0 1.34375.019531 2.007812.050781.316406.035156.632813.054688.953125.070312 20.648438 1.523438 36.988281 18.800782 36.988281 39.832032 0 22.027344-17.921874 39.949218-39.949218 39.949218zm108 3.460938v-17.425781c0-37.605469 30.597656-68.199219 68.203125-68.199219s68.199219 30.59375 68.199219 68.199219v17.957031c-20.472657 9.8125-43.386719 15.316406-67.5625 15.316406-24.238282.003906-47.660157-5.484375-68.839844-15.847656zm175.964844-26.5625c-4.652344-55.375-51.203126-99.015625-107.761719-99.015625-43.738281 0-81.492188 26.097656-98.515625 63.539063-6.761719-28.195313-28.503906-50.617188-56.316406-58.347657-.886719-6.800781-1.34375-13.679687-1.34375-20.570312 0-86.464844 70.347656-156.808594 156.808593-156.808594 86.464844 0 156.808594 70.34375 156.808594 156.808594 0 45.074219-19.125 85.765625-49.679687 114.394531zm0 0"/><path d="m314.539062 70.714844c-35.796874 0-64.921874 29.121094-64.921874 64.917968 0 35.800782 29.125 64.921876 64.921874 64.921876 35.796876 0 64.917969-29.121094 64.917969-64.921876 0-35.796874-29.121093-64.917968-64.917969-64.917968zm0 89.890625c-13.769531 0-24.96875-11.203125-24.96875-24.972657 0-13.765624 11.199219-24.96875 24.96875-24.96875 13.765626 0 24.96875 11.203126 24.96875 24.96875 0 13.769532-11.203124 24.972657-24.96875 24.972657zm0 0"/></svg>